# xmcd
#
# Track frame offsets:
#	150
#	18084
#	40350
#	66446
#	86520
#	109962
#	132431
#	156516
#	176180
#	203560
#	241939
#	270704
#	289683
#	308483
#
# Disc length: 4319 seconds
#
# Revision: 0
# Processed by: cddbd v1.5.2PL0 Copyright (c) Steve Scherf et al.
# Submitted via: audiograbber 1.83.01
#
DISCID=c610dd0e
DTITLE=Teddy Pendergrass - The Essential [CD1]
DYEAR=2007
DGENRE=Soul
TTITLE0=I Don't Love You Anymore
TTITLE1=When Somebody Loves You Back
TTITLE2=Come Go With Me
TTITLE3=The Whole Town's Laughing At Me
TTITLE4=Somebody Told Me
TTITLE5=Love T.K.O.
TTITLE6=You're My Latest My Greatest Inspiration
TTITLE7=And If I Had
TTITLE8=Don't Leave Me This Way
TTITLE9=I Miss You
TTITLE10=The Love I Lost
TTITLE11=Nine Times Out Of Ten
TTITLE12=Life Is A Song Worth Singing
TTITLE13=If You Don't Know Me By Now
EXTD=
EXTT0=
EXTT1=
EXTT2=
EXTT3=
EXTT4=
EXTT5=
EXTT6=
EXTT7=
EXTT8=
EXTT9=
EXTT10=
EXTT11=
EXTT12=
EXTT13=
PLAYORDER=
